<svg xmlns="http://www.w3.org/2000/svg" width="15" height="15" viewBox="0 0 15 15" fill="none">
  <path fill-rule="evenodd" clip-rule="evenodd" 
    d="M7.51859 3.05175C8.36659 2.21793 9.35721 1.72364 10.4618 1.67129L10.6579 1.66666C12.6388 1.66666 14.1667 3.25588 14.1667 5.15538C14.1667 6.05559 13.8789 6.76727 13.2793 7.49179L8.33056 13.0686C7.6469 13.6734 7.3421 13.6734 6.62823 13.0384L1.69633 7.46094C1.10008 6.61275 0.833351 5.99451 0.833351 5.15538C0.833351 3.25588 2.36127 1.66666 4.34213 1.66666C5.55374 1.66666 6.62729 2.17518 7.49442 3.07608L7.51859 3.05175ZM13.426 5.17358C13.426 3.66601 12.2129 2.4074 10.6373 2.4074C9.5506 2.4074 8.5775 2.92634 7.74867 3.85288L7.47962 4.15366L7.22004 3.8448C6.44533 2.92297 5.47146 2.4074 4.36276 2.4074C2.78717 2.4074 1.57408 3.66601 1.57408 5.17358C1.57408 5.83349 1.78775 6.32752 2.28179 7.03231L7.12748 12.4993L7.35841 12.7058C7.48304 12.8098 7.52453 12.8003 7.65935 12.6826L7.83183 12.529L12.7107 7.04107C13.2013 6.44943 13.426 5.89538 13.426 5.17358Z" 
    fill="none" 
    stroke="#665E5C" 
    stroke-width="0.5"  
  />
</svg>